<?xml version="1.0" encoding="UTF-8" standalone="no"?>
<svg
   id="Calque_1"
   data-name="Calque 1"
   viewBox="0 0 1080 1080"
   version="1.1"
   sodipodi:docname="Bastides_onde footer.svg"
   inkscape:version="1.1.2 (0a00cf5339, 2022-02-04)"
   xmlns:inkscape="http://www.inkscape.org/namespaces/inkscape"
   xmlns:sodipodi="http://sodipodi.sourceforge.net/DTD/sodipodi-0.dtd"
   xmlns="http://www.w3.org/2000/svg"
   xmlns:svg="http://www.w3.org/2000/svg">
  <sodipodi:namedview
     id="namedview8"
     pagecolor="#505050"
     bordercolor="#eeeeee"
     borderopacity="1"
     inkscape:pageshadow="0"
     inkscape:pageopacity="0"
     inkscape:pagecheckerboard="0"
     showgrid="false"
     inkscape:zoom="0.39074074"
     inkscape:cx="1017.2986"
     inkscape:cy="689.71564"
     inkscape:window-width="1878"
     inkscape:window-height="1016"
     inkscape:window-x="42"
     inkscape:window-y="27"
     inkscape:window-maximized="1"
     inkscape:current-layer="Calque_1" />
  <defs
     id="defs4">
    <style
       id="style2">
      .cls-1 {
        fill: #000000;
      }
    </style>
  </defs>
  <path
     id="Tracé_78"
     data-name="Tracé 78"
     class="cls-1"
     d="m 310.19101,490.19339 c -7.44234,-27.18713 -39.27208,-48.10192 -77.37185,-48.10192 v 0 c -37.31825,0 -68.65064,19.91786 -76.76794,46.44037 v 139.36264 c -0.81707,3.36464 -1.24335,6.8539 -1.27888,10.36394 v 385.29308 c 0.0355,1.6823 -0.0355,3.3646 -0.24866,5.0469 v 0 0.2285 c 0,0.6023 -0.2842,1.6615 -0.2842,2.43 v 0 0.2285 c 0,0.5192 -0.19539,0.9761 -0.19539,1.6615 v 0 0.457 c -0.33748,1.5161 -0.76376,3.0115 -1.27887,4.4654 v 0 c -0.33748,0.6023 -0.5151,1.4331 -0.83482,2.0146 v 0 c -0.35524,0.9762 -0.78153,1.9108 -1.27886,2.8039 v 0 0.1246 l -0.14211,0.7476 v 0 l -1.56306,3.157 v 0 c -1.10126,2.0146 -2.38013,3.9046 -3.81887,5.6077 v 0 c -0.49733,0.6024 -0.72825,0.9762 -1.22559,1.5577 v 0 c -0.2309,0.3324 -0.49734,0.6439 -0.78153,0.9139 v 0 c -0.74601,1.08 -1.61634,1.9939 -2.61103,2.7416 v 0 c -0.373,0.4361 -0.78153,0.81 -1.22558,1.1423 v 0 c -1.3144,1.1423 -2.30909,2.3469 -3.81887,3.4892 v 0 l -0.19538,0.3946 v 0 l -0.39076,0.1246 v 0 c -1.4565,1.4539 -3.03733,2.7416 -4.6892,3.8424 v 0 l -0.24868,0.1246 v 0 l -0.49734,0.2284 v 0 c -1.50978,0.9762 -3.09061,1.8901 -4.60039,2.8662 v 0 c -0.49734,0.3323 -0.92363,0.5816 -1.50978,1.0385 v 0 c -1.27887,0.4569 -2.30908,1.3708 -3.53466,1.89 v 0 c -0.44406,0.1454 -0.87035,0.3323 -1.27888,0.5815 v 0 l -0.72825,0.3324 h -0.28419 c -2.30908,0.9761 -4.49382,1.89 -6.90947,2.8038 h -0.19538 l -0.58615,0.1246 h -0.24867 c -0.19539,0 -0.39077,0.2285 -0.69273,0.2285 v 0 c -0.67496,0.1246 -1.34992,0.2907 -2.00712,0.5192 v 0 c -0.78153,0.2285 -1.3144,0.4569 -2.00712,0.6854 v 0 l -1.1723,0.2285 v 0 c -1.22559,0.4361 -2.46894,0.7684 -3.712286,1.0384 v 0 c -0.515102,0.042 -1.030203,0.1662 -1.509781,0.3946 H 98.271 l -1.225588,0.1246 h -0.284194 c -1.811738,0.457 -3.818858,0.6854 -5.541785,1.1424 h -0.284194 c -0.870345,0.1038 -1.740689,0.1453 -2.611034,0.1246 h -0.49734 c -1.065728,0.1869 -2.149217,0.27 -3.232707,0.2284 h -0.781534 c -1.936074,0.2077 -3.889908,0.27 -5.825981,0.2285 -2.00712,0 -3.818858,0 -5.932552,-0.2285 h -0.781534 c -0.923631,0 -2.202504,-0.2284 -3.232707,-0.2284 h -0.497341 c -0.728247,0 -1.616353,-0.1246 -2.611034,-0.1246 h -0.248669 c -0.74601,-0.1039 -1.474257,-0.2493 -2.202505,-0.457 v 0 c -1.08349,-0.2284 -2.309077,-0.4569 -3.285994,-0.6854 h -0.284195 c -0.444052,0 -0.728246,-0.1246 -1.314397,-0.1246 h -0.195383 c -0.355243,0 -0.710486,-0.083 -1.047966,-0.2284 h -0.195384 c -1.190062,-0.1454 -2.380126,-0.4362 -3.534665,-0.8516 h -0.284194 c -0.195382,-0.3323 -0.781534,-0.3323 -1.08349,-0.4569 v 0 c -0.674961,-0.1454 -1.349922,-0.3323 -2.00712,-0.5815 v 0 c -0.728248,-0.2285 -1.225588,-0.457 -2.007121,-0.6023 v 0 l -0.728248,-0.1246 h -0.284195 c -2.309076,-0.81 -4.316197,-1.5993 -6.216746,-2.43 v 0 c -0.888106,-0.457 -1.367684,-0.6854 -2.078169,-1.0385 v 0 c -0.444054,-0.2493 -0.905868,-0.4362 -1.367684,-0.5816 v 0 c -1.190064,-0.5192 -2.326841,-1.163 -3.428092,-1.89 v 0 c -0.586151,-0.4569 -1.047965,-0.6854 -1.509781,-1.0384 v 0 c -1.616355,-0.9762 -3.090611,-1.7654 -4.600393,-2.7416 v 0 l -0.284194,-0.1246 v 0 l -0.284194,-0.2285 v 0 c -1.705165,-1.3707 -3.534664,-2.43 -5.222068,-4.0708 v 0 l -0.284194,-0.1661 v 0 c -0.781534,-0.7893 -1.811737,-1.5993 -2.50446,-2.1808 v 0 l -1.225587,-1.2254 v 0 c -0.461816,-0.3115 -0.90587,-0.6438 -1.314398,-1.0385 v 0 c -0.976918,-1.2254 -2.202504,-2.5754 -3.285995,-3.6554 v 0 c -0.49734,-0.5815 -0.728247,-1.0384 -1.225587,-1.6615 v 0 c -1.8650239,-2.3677 -3.481378,-5.0054 -4.7957758,-7.8508 v 0 l -0.5861504,-0.7893 v -0.2284 0 c -0.9946795,-1.7862 -1.7584511,-3.7385 -2.2557909,-5.7739 v 0 c -0.035524,-0.4569 -0.2486698,-0.8931 -0.5861504,-1.1423 v 0 c -0.1953835,-0.8516 -0.3907669,-2.1185 -0.674961,-3.0947 v -0.3323 0 c 0,-0.5815 -0.2841941,-1.2669 -0.2841941,-1.5992 v -0.2285 0 c -0.2486699,-0.7685 -0.3374806,-1.5785 -0.2841942,-2.4092 v -0.457 0 c -0.1598592,-1.6823 -0.2309078,-3.3646 -0.1953835,-5.0469 V 61.803849 c 0,-78.321389 155.4186633,-77.532151 155.4186633,0 V 325.03516 h 0.78153 c 7.24696,27.54022 39.2188,48.185 77.26529,48.185 v 0 c 37.95767,0 70.01832,-20.66556 77.26528,-48.185 h 0.28419 l 0.19538,-2.24309 v 0 -0.45693 c 0,-0.45692 0.39076,-1.30847 0.39076,-1.89002 v 0 -0.12459 c 0.19539,-0.97615 0.49735,-2.01462 0.63945,-2.92848 v 0 -0.16615 c 0,-0.45693 0.28419,-0.78925 0.28419,-1.14231 v 0 -0.22848 c 0,-0.3323 0.28419,-0.78923 0.28419,-1.03846 v 0 -0.1246 c 0.0355,-0.45692 0.21315,-0.89308 0.49734,-1.22539 v 0 c 0.30196,-0.60231 0.53286,-1.22539 0.69272,-1.89002 v 0 -0.22846 c 0.15986,-0.3323 0.37301,-0.6023 0.63943,-0.78923 v 0 c 0,-0.22846 0.10656,-0.51923 0.49736,-0.74771 v 0 c 0.10655,-0.58154 0.49734,-0.91384 0.78153,-1.49539 v 0 c 0.30195,-0.74769 0.67496,-1.47463 1.119,-2.11848 v 0 l 0.28421,-0.68538 v 0 -0.22846 l 0.28419,-0.39463 v 0 -0.33231 c 0.72825,-0.91385 1.22559,-1.89002 2.00712,-2.80386 v 0 c 0.373,-0.56077 0.78153,-1.05924 1.22559,-1.53694 v 0 c 0.44405,-0.49846 0.87034,-1.03847 1.27887,-1.59925 v 0 c 1.3144,-1.30846 2.25579,-2.70002 3.92543,-4.1331 v 0 c 1.24335,-1.32924 2.59327,-2.53387 4.01424,-3.61387 v 0 l 0.19538,-0.39463 v 0 l 0.24868,-0.22846 v 0 c 1.27887,-1.14231 2.64655,-2.16002 4.06753,-3.0531 v 0 l 0.24866,-0.22847 v 0 l 0.19539,-0.22846 v 0 c 1.61635,-1.08001 3.3748,-2.01463 5.18654,-3.0531 v 0 l 0.92363,-0.51923 v 0 c 0.49734,-0.22847 1.08348,-0.58155 1.61635,-0.81001 v 0 c 0.71049,-0.43616 1.43874,-0.83078 2.20251,-1.14232 v 0 c 0.78154,-0.39462 1.36768,-0.6023 2.07817,-0.97616 v 0 c 0.67496,-0.24923 1.31439,-0.60231 1.91831,-1.03846 v 0 c 1.36769,-0.51924 2.61103,-1.08002 3.87215,-1.4331 h 0.24866 l 0.78154,-0.3323 h 0.19539 l 0.78153,-0.12459 v 0 c 1.04797,-0.45693 1.91831,-0.58155 2.84194,-0.97616 v 0 l 2.00711,-0.58156 v 0 l 1.0835,-0.3323 v 0 l 0.94139,-0.22846 h 0.2842 c 1.3144,-0.45693 2.50446,-0.58155 3.71229,-0.97616 h 0.28419 c 0.373,0 0.72825,-0.10387 1.08349,-0.22846 h 0.44405 c 0.49734,0 0.97691,-0.12459 1.56307,-0.12459 h 0.19539 c 1.31439,-0.22847 2.53997,-0.45694 4.17409,-0.6854 h 0.10656 c 0.87034,-0.0623 1.74069,-0.16616 2.61104,-0.33231 h 0.28419 c 1.22559,-0.12459 2.30907,-0.12459 3.53466,-0.12459 h 0.97692 c 1.81174,0 3.53466,-0.22846 5.32864,-0.22846 1.88279,-0.0416 3.76558,0.0207 5.6306,0.22846 h 0.78153 c 0.97692,0 2.30907,0.12459 3.23271,0.12459 h 0.49734 c 0.78153,0 1.50978,0.22846 2.61103,0.22846 h 0.2842 c 0.746,0 1.47425,0.12459 2.2025,0.33231 v 0 c 1.50978,0.22847 3.23271,0.58155 4.84906,0.97617 h 0.19539 c 0.44405,0 0.87034,0.14538 1.27887,0.3323 v 0 c 1.3144,0.33231 2.53998,0.68539 3.53466,1.03847 h 0.2842 c 0.33748,0.10387 0.69273,0.18693 1.04797,0.22848 v 0 c 3.87214,1.05922 7.691,2.38847 11.40328,4.00848 v 0 c 0.72825,0.45692 1.22559,0.58154 2.00712,1.03847 v 0 c 1.70517,0.62309 3.32153,1.4954 4.84907,2.57541 v 0 c 0.53286,0.16616 1.03021,0.45693 1.47426,0.85154 v 0 c 0.55062,0.31155 1.10124,0.66463 1.61634,1.03847 v 0 c 0.63945,0.45694 1.42098,0.85155 2.39789,1.43309 v 0 c 0.24868,0 0.24868,0.22846 0.24868,0.22846 h 0.39076 l 0.10655,0.22847 v 0 c 2.07816,1.43309 4.01424,3.0531 6.12793,4.59004 v 0 l 0.2842,0.22846 v 0 c 0.72825,0.58154 1.40321,1.24617 2.00712,2.01463 v 0 c 0.44405,0.29078 0.85258,0.64386 1.22559,1.03847 v 0 c 0,0.29077 0.39076,0.29077 0.39076,0.45692 0.19539,0.29078 0.4263,0.54001 0.69272,0.7477 v 0 c 0.58616,0.33232 0.78155,0.81 1.2256,1.14232 v 0 c 0.26642,0.31153 0.53286,0.64385 0.78152,0.97616 v 0 c 0.58616,0.58154 0.78155,1.03847 1.31441,1.59925 v 0 c 2.25578,2.8454 4.28067,5.96081 6.02136,9.26315 v 0 c 0.58616,0.74769 0.88811,1.7654 1.36769,2.43001 v 0 c 0.12435,0.33232 0.26642,0.66462 0.44404,0.97617 v 0 c 0.21315,0.72692 0.47958,1.43308 0.78155,2.11848 v 0.22846 0 c 0.19538,0.33231 0.19538,0.78923 0.49733,0.91385 v 0.22846 0 c 0,0.33232 0.19539,0.78924 0.19539,1.22539 v 0.12459 0 c 0,0.45693 0.28419,0.78925 0.28419,1.26695 v 0 c 0.28419,0.51923 0.28419,0.97615 0.5151,1.43308 v 0.22846 0 c 0.15986,0.54001 0.21315,1.10079 0.19539,1.66155 v 0.33231 0 c 0.28419,0.6854 0.28419,1.4954 0.58614,2.34694 v 0 c 0.15986,1.91079 0.23091,3.82157 0.19539,5.73235 v 237.6642 h 0.28419 c 7.53115,27.83098 39.9648,48.95346 78.49086,48.95346 v 0 c 38.52607,0 71.04854,-21.12248 78.63297,-48.95346 h 0.49734 v -341.07501 0 -0.85154 c 0.0355,-1.08002 0.19538,-2.13926 0.5151,-3.15695 v 0 -0.22846 c 0,-0.58155 0.19538,-1.14232 0.19538,-1.7654 v 0 -0.33232 c 0.58616,-1.89 0.97692,-3.71771 1.61637,-5.60773 v 0 -0.22846 c 0,-0.45693 0.19537,-0.58154 0.19537,-0.85155 v 0 c 0.49734,-1.26693 0.97693,-2.57541 1.50978,-3.84234 v 0 -0.12459 c 0.0355,-0.3323 0.23091,-0.62307 0.49735,-0.74769 v 0 c 0.76377,-1.51617 1.63411,-2.92849 2.61103,-4.2785 v 0 c 0.19538,-0.22846 0.19538,-0.39463 0.49734,-0.51923 v 0 l 0.49734,-0.58154 v 0 c 0.14209,-0.22848 0.14209,-0.45694 0.44406,-0.58156 v 0 c 0.58614,-0.85154 1.08348,-1.66154 1.56305,-2.24308 v 0 c 0.24868,-0.58154 0.72826,-0.91386 1.31441,-1.53694 v 0 c 0.97692,-1.30848 2.0604,-2.53387 3.2327,-3.61387 v 0 l 1.27888,-1.22541 v 0 l 4.5471,-4.07079 0.49734,-0.39462 v 0 l 0.28419,-0.33231 v 0 c 0.78155,-0.58155 1.42098,-1.14231 2.20251,-1.7654 v 0 l 0.2842,-0.16616 v 0 l 0.49734,-0.16615 v 0 c 1.81173,-1.14231 3.62347,-2.34694 5.22207,-3.48925 v 0 c 0.53286,-0.31155 1.0302,-0.64385 1.50978,-1.03848 v 0 c 1.08348,-0.51923 1.70516,-0.85154 2.89523,-1.53694 v 0 c 0.67496,-0.27 1.34992,-0.56077 2.00711,-0.91385 h 0.28419 l 1.2256,-0.51923 v 0 c 1.50978,-0.68539 2.78864,-1.37079 4.31619,-1.99386 v 0 l 0.58615,-0.12459 h 0.39077 l 0.83482,-0.22847 v 0 l 0.67496,-0.22846 v 0 l 0.72824,-0.22846 v 0 l 2.89523,-0.91386 v 0 c 0.19539,-0.12459 0.67496,-0.12459 0.97693,-0.45692 h 0.24866 c 0.67496,-0.10388 1.34993,-0.27 2.00712,-0.51924 v 0 l 1.0835,-0.3323 v 0 c 1.22559,-0.45694 2.50446,-0.58155 4.01424,-1.03848 h 0.19538 c 0.5151,-0.18692 1.06573,-0.27 1.61635,-0.22846 h 0.19539 l 1.50978,-0.1246 h 0.2842 c 1.22558,-0.29077 2.50446,-0.39461 4.10304,-0.6023 h 0.10656 c 0.87034,-0.0416 1.74068,-0.16616 2.61102,-0.33232 h 0.28421 c 1.06572,-0.18691 2.14921,-0.26999 3.23269,-0.22846 h 0.78155 c 2.07817,-0.12459 3.71228,-0.12459 5.82597,-0.12459 2.1137,0 4.10305,0 6.12794,0.12459 h 0.49734 c 1.19006,0.0416 2.36236,0.18693 3.53466,0.45692 h 0.2842 c 0.72824,0 1.50978,0.1246 2.30908,0.1246 h 0.44404 c 1.27888,0.22846 2.78866,0.33231 4.10306,0.60231 v 0 c 0.53287,0 1.06573,0.12459 1.56307,0.33231 v 0 c 0.49734,0.0416 0.97692,0.2077 1.42096,0.45693 v 0 c 2.00714,0.33231 4.01426,0.91385 6.12794,1.43309 h 0.28419 l 0.92364,0.45692 v 0 c 2.61104,0.78924 4.79578,1.59925 7.38904,2.43002 v 0 c 1.31441,0.58155 2.53999,1.03847 3.81887,1.59925 v 0 c 0.63943,0.39462 1.22559,0.51923 2.00712,0.97616 v 0 c 0.42628,0.12459 0.83482,0.31154 1.22559,0.58154 v 0 c 0.78153,0.33231 1.50978,0.81 2.30907,1.08001 v 0 c 0.56839,0.20769 1.0835,0.56077 1.50978,1.03847 v 0 c 0.55063,0.29077 1.06573,0.64385 1.56307,1.03847 v 0 c 0.72824,0.51923 1.50978,0.85155 2.53999,1.53693 v 0 c 2.80641,1.80694 5.48849,3.84234 8.02848,6.10621 v 0 l 0.2842,0.3323 v 0 c 0.49734,0.58155 0.97691,1.03847 1.50978,1.59925 v 0 c 0.40852,0.39462 0.83482,0.7477 1.27887,1.08 v 0 c 0.39077,0.45694 0.79929,0.87233 1.22559,1.26694 v 0 c 0.78153,0.85154 1.50978,1.66156 2.30907,2.63772 v 0 l 0.78154,0.91384 v 0 c 1.01244,1.20464 1.9183,2.5131 2.75312,3.88388 v 0.22847 0 c 0,0.22846 0.19539,0.3323 0.19539,0.68538 v 0.12459 0 l 0.39077,0.58155 v 0 l 0.19538,0.58155 v 0 c 0.78153,1.14231 1.47426,2.3677 2.07817,3.65541 v 0 l 0.10655,0.81 v 0.22846 0 c 0.63943,1.1631 1.1723,2.38849 1.61635,3.65542 v 0 c 0.14209,0.39461 0.30195,0.76847 0.49734,1.14232 v 0.16616 0 c 0,0.3323 0.2842,0.68538 0.2842,1.14231 v 0.22846 0 c 0.28419,1.03848 0.44405,1.89002 0.72824,2.80388 v 0.45692 0 c 0,0.51923 0.19538,0.97616 0.19538,1.53694 v 0.3323 0 c 0,0.85154 0.28419,1.30848 0.28419,2.2431 v 0 c 0.28421,1.43308 0.28421,2.80387 0.49736,4.34081 v 1.14231 0 230.68568 h 1.50978 c 7.38904,27.4779 39.32535,48.18499 77.26527,48.18499 v 0 c 36.51895,0 67.81583,-19.35708 76.43046,-45.29806 v -19.68938 0 -1.14231 c 0,-1.2254 0.19539,-2.34694 0.19539,-3.42696 v 0 -0.3323 c 0,-0.78925 0.28419,-1.37079 0.28419,-1.99387 v 0 -0.22846 c 0,-0.6854 0.24866,-1.14232 0.24866,-1.7654 v 0 -0.22846 c 0.19539,-0.91386 0.39077,-1.72387 0.67496,-2.70002 v 0 -0.22846 c 0,-0.33232 0.39077,-0.6854 0.39077,-0.91387 v 0 -0.16615 c 0.19539,-0.29077 0.19539,-0.74769 0.49734,-1.08001 v 0 c 0.44406,-1.26693 1.04797,-2.57541 1.42098,-3.71772 v 0 -0.16615 c 0.12436,-0.33232 0.33748,-0.60232 0.58614,-0.81 v 0 c 0.56839,-1.30848 1.24336,-2.55465 2.00712,-3.71773 v 0 c 0,-0.12459 0.19539,-0.22846 0.19539,-0.51923 v 0 l 0.33748,-0.58155 v 0 l 0.49734,-0.58154 v 0 l 0.19538,-0.58154 v 0 c 0.28419,-0.22848 0.28419,-0.39463 0.58616,-0.51925 v 0 c 0.37299,-0.78923 0.85258,-1.49539 1.42096,-2.11846 v 0 c 0.58616,-0.6854 0.78154,-1.03848 1.31441,-1.59925 v 0 c 0.19537,-0.45692 0.49734,-0.58154 0.78153,-0.97617 v 0 l 0.67496,-1.03847 v 0 c 0.28419,-0.3323 0.83482,-0.68538 1.04797,-1.14231 v 0 c 0.49734,-0.29077 0.78153,-0.7477 1.27886,-1.10078 v 0 c 0.51511,-0.45693 0.72826,-0.78923 1.3144,-1.26693 v 0 c 0.78154,-0.60232 1.50978,-1.4331 2.39789,-2.11848 v 0 l 0.28419,-0.12459 v 0 c 1.54531,-1.35001 3.16167,-2.57541 4.84907,-3.65541 v 0 l 0.19539,-0.22846 v 0 l 0.28419,-0.22848 v 0 c 1.08349,-0.58154 1.81173,-1.30846 2.89523,-1.89 v 0 l 1.50978,-1.03848 v 0 c 0.5151,-0.18691 0.99467,-0.47768 1.42097,-0.85154 v 0 c 0.49734,-0.45692 1.08348,-0.58154 1.50978,-1.03846 v 0 l 1.36769,-0.58155 v 0 c 0.39076,-0.33232 1.22558,-0.51924 1.72291,-0.97617 h 0.19539 c 0.46181,-0.12459 0.90587,-0.31154 1.31439,-0.58154 v 0 c 1.27889,-0.68538 2.61104,-1.03846 3.71229,-1.53694 v 0 c 0.30197,-0.0623 0.60392,-0.16615 0.88811,-0.3323 v 0 l 0.69272,-0.45693 v 0 c 0.30196,0 0.58616,-0.14539 0.83482,-0.33232 v 0 c 2.30909,-0.78923 4.49383,-1.53692 6.78514,-2.11846 v 0 l 1.04797,-0.33232 h 0.19538 c 0.74601,-0.29077 1.52755,-0.51923 2.30908,-0.68539 v 0 c 1.08349,-0.12459 1.81173,-0.29077 2.89523,-0.51923 v 0 c 0.49733,-0.18693 0.99467,-0.35308 1.50978,-0.45692 v 0 c 1.11901,-0.1246 2.39789,-0.33232 3.71228,-0.45694 h 0.19539 c 0.88811,0 1.50978,-0.22846 2.07817,-0.22846 h 0.19537 c 0.92364,-0.18693 1.86503,-0.27 2.78866,-0.22847 v 0 c 1.81174,-0.12459 3.92544,-0.12459 5.63056,-0.3323 h 5.826 c 1.7052,0 3.8189,0.22846 5.5418,0.3323 v 0 c 1.0835,0 1.8117,0.22847 2.8952,0.22847 h 0.1954 c 0.7283,0 1.421,0.22846 2.3091,0.22846 h 0.1421 c 1.3677,0.12459 2.611,0.33232 3.8721,0.45694 v 0 c 0.5329,0.0416 1.0302,0.20768 1.5098,0.45692 v 0 c 0.9414,0.22846 1.8828,0.39461 2.842,0.51923 v 0 c 0.746,0.14538 1.492,0.39462 2.2025,0.68539 v 0 c 0.373,0.0416 0.746,0.16615 1.0835,0.33232 v 0 c 0.6749,0.14538 1.3499,0.3323 2.0071,0.58154 h 0.2842 c 1.7051,0.58154 3.7123,1.22539 5.5417,1.89 v 0 c 0.2665,0.0623 0.4974,0.22848 0.675,0.45694 v 0 c 1.3322,0.41539 2.6466,0.93462 3.9254,1.53693 v 0 c 0.6395,0.33232 1.2256,0.58154 2.0072,0.91386 v 0 c 1.6874,0.66461 3.3037,1.53694 4.849,2.5754 v 0 c 0.5151,0.24924 0.9947,0.51923 1.4743,0.85154 v 0 c 1.5098,1.03848 3.0373,1.82771 4.5471,2.92848 v 0 l 0.4973,0.22848 v 0 l 0.2842,0.22846 v 0 c 1.492,0.99693 2.9308,2.07693 4.3162,3.26079 v 0 l 0.1954,0.16615 v 0 c 0,0.22847 0.2842,0.22847 0.2842,0.33232 v 0 c 0.7283,0.87232 1.5986,1.59924 2.54,2.11847 v 0 c 0.4085,0.45694 0.8348,0.87233 1.2789,1.26694 v 0 c 0.5861,0.33231 0.7282,0.81001 1.2255,1.10078 v 0 c 0.7105,0.68538 1.3677,1.41232 2.0072,2.18079 v 0 c 0.5151,0.41539 0.9414,0.93462 1.2788,1.53693 v 0.22847 0 l 0.8349,0.85153 v 0 c 0.7815,1.03847 1.4742,2.05618 2.0071,2.70003 v 0 c 0.1954,0.22846 0.1954,0.45692 0.5861,0.68538 v 0 l 0.3908,0.58156 v 0 l 0.4973,0.6023 v 0 c 0.4619,0.91386 1.0125,1.78618 1.6164,2.5754 v 0 c 0.1954,0.58155 0.4973,1.03848 0.6394,1.59925 v 0 l 0.5862,0.7477 v 0.22846 0 c 0.4973,1.14232 0.9769,2.43002 1.5098,3.61388 v 0 c 0.1953,0.45693 0.1953,0.91385 0.4973,1.2254 v 0.22846 0 c 0.2309,0.31154 0.3375,0.72693 0.2842,1.14231 v 0.22847 0 c 0,0.39462 0.1954,0.7477 0.1954,1.2254 v 0 c 0.2131,0.47769 0.373,0.97615 0.4973,1.49539 v 0 c 0.2665,0.56078 0.4441,1.14232 0.5151,1.7654 v 0.3323 0 c 0,0.60232 0.1954,1.08002 0.1954,1.99386 v 0 c 0.302,1.20464 0.4974,2.43003 0.5862,3.65542 v 1.26693 0 198.61773 0 1.30848 c 0,1.26693 -0.2132,2.53385 -0.5862,3.71771 v 0 c 0,0.7477 -0.1954,1.30848 -0.1954,1.99386 v 0 0.33231 c -0.018,0.60232 -0.1954,1.18386 -0.5151,1.66156 v 0 c 0,0.58154 -0.1954,1.03846 -0.1954,1.59924 v 0 c 0,0.29077 -0.2842,0.7477 -0.2842,1.08 v 0 0.22848 c 0,0.33231 -0.1953,0.81 -0.1953,1.14231 v 0 0.16615 c -0.2842,0.45693 -0.2842,0.81001 -0.5862,1.14233 v 0 c -0.444,1.22539 -1.048,2.5754 -1.5098,3.6554 v 0 0.33232 l -0.3907,0.68539 v 0 c -0.8349,1.14232 -1.3144,2.43002 -2.0782,3.65541 v 0 l -0.1954,0.58155 v 0 c 0,0.22846 -0.3375,0.3323 -0.3375,0.58154 v 0 l -0.1954,0.58154 v 0 l -0.2841,0.58154 v 0 l -0.3908,0.60232 v 0 c -0.5862,0.78923 -1.119,1.49539 -1.6164,2.11848 v 0 c -0.5861,0.58154 -0.6749,1.03846 -1.2788,1.49539 v 0 c -0.1954,0.39461 -0.5151,0.60231 -0.7283,0.97615 v 0 c -0.1954,0.45694 -0.4973,0.58155 -0.7815,1.03848 v 0 c -0.3553,0.45693 -0.7816,0.87232 -1.2256,1.2254 v 0 c -0.2842,0.12459 -0.5862,0.58154 -0.8881,0.68538 v 0 l -0.1954,0.45693 v 0 c -1.048,1.12155 -2.167,2.18079 -3.3215,3.15694 v 0 l -0.1954,0.29079 v 0 l -0.2842,0.22846 v 0 c -1.7229,1.37077 -3.2327,2.70002 -5.2221,4.07079 v 0 l -0.2842,0.12459 v 0 c -1.0835,0.60232 -1.8117,1.2254 -2.7886,1.7654 v 0 c -0.4796,0.37386 -0.9947,0.70616 -1.5098,0.97616 v 0 c -0.4973,0.33232 -0.9947,0.64385 -1.5098,0.91386 v 0 c -0.5151,0.31153 -0.9947,0.64385 -1.4742,1.03847 v 0 c -0.5151,0.22846 -0.7283,0.3323 -1.3144,0.60231 v 0 c -0.4263,0.12459 -0.8349,0.33231 -1.2256,0.58155 v 0 c -0.7816,0.3323 -1.2789,0.45692 -2.0782,0.91384 v 0 c -0.9236,0.31155 -1.8295,0.72694 -2.6998,1.2254 v 0 c -0.302,0.0623 -0.6039,0.16615 -0.8881,0.33232 v 0 l -0.7283,0.3323 v 0 c -0.1954,0 -0.4973,0.22846 -0.7815,0.22846 v 0 l -0.6395,0.45693 v 0 c -1.2788,0.29077 -2.611,0.74771 -3.659,1.08001 v 0 c -0.7282,0.12459 -1.2255,0.45693 -2.0071,0.58154 v 0 l -0.9236,0.33231 h -0.302 c -1.5097,0.45694 -3.286,0.85155 -4.9023,1.22539 v 0 c -0.4796,0.0623 -0.9592,0.16617 -1.421,0.33232 h -0.2842 c -0.3552,0 -0.7105,0.083 -1.0479,0.22846 h -0.7816 c -0.4796,0.18693 -1.0124,0.27 -1.5098,0.22847 v 0 c -0.6572,0.18692 -1.3321,0.29077 -2.0071,0.3323 v 0 c -0.7282,0.16615 -1.4565,0.29077 -2.2025,0.33232 h -0.5861 c -2.5045,0.29077 -5.0445,0.45692 -7.8331,0.6023 h -7.1227 c -2.5577,0 -5.11544,-0.18691 -7.63767,-0.6023 h -0.49735 c -0.76376,0 -1.50978,-0.12459 -2.25578,-0.33232 v 0 c -0.6572,-0.0416 -1.31439,-0.16615 -1.95384,-0.3323 v 0 c -0.63944,0 -1.04796,-0.22847 -1.61635,-0.22847 h -0.28419 c -0.44406,0 -0.92364,-0.22846 -1.50978,-0.22846 h -0.2842 c -0.47958,-0.0832 -0.95915,-0.18693 -1.42097,-0.33232 v 0 c -1.50978,-0.3323 -3.32152,-0.74769 -4.79578,-1.22539 h -0.28419 c -0.35524,-0.0416 -0.71048,-0.16615 -1.04797,-0.33231 v 0 c -0.69272,-0.12459 -1.22559,-0.45692 -2.00711,-0.58154 v 0 c -1.0835,-0.3323 -1.81175,-0.58154 -2.78867,-0.85155 v 0 l -0.72823,-0.22846 v 0 l -0.78155,-0.45693 v 0 l -0.78153,-0.22846 v 0 l -0.72825,-0.12459 v 0 l -0.78153,-0.45692 v 0 c -0.9414,-0.27 -1.84726,-0.64385 -2.75313,-1.08002 v 0 c -0.78153,-0.3323 -1.27887,-0.68538 -2.00712,-1.03846 v 0 c -1.75846,-0.97616 -3.57019,-1.66156 -5.38192,-2.80387 v 0 c -1.42098,-0.97616 -2.93076,-1.89002 -4.51159,-2.80387 v 0 l -0.44405,-0.16615 v 0 l -0.28419,-0.22847 v 0 c -1.88279,-1.18385 -3.67677,-2.55463 -5.38193,-4.0708 v -0.22846 0 l -0.19538,-0.12459 v 0 l -0.33748,-0.22846 v 0 c -1.1723,-1.2254 -2.50447,-2.18079 -3.76558,-3.42696 v 0 c -0.5151,-0.3323 -0.72825,-0.78923 -1.31439,-1.22539 v 0 c -0.69273,-0.91385 -1.70517,-1.72385 -2.50446,-2.70002 v 0 c -0.44406,-0.45693 -0.72825,-0.91385 -1.22559,-1.49539 v 0 c -0.40854,-0.54001 -0.85258,-1.05924 -1.3144,-1.53694 v 0 c -0.17762,-0.41539 -0.40853,-0.81001 -0.67496,-1.14232 v 0 c 0,-0.29078 -0.2842,-0.39462 -0.2842,-0.60231 v -0.2077 0 l -0.19539,-0.58154 v -0.22846 0 l -0.30195,-0.58154 v 0 l -0.19538,-0.45693 v 0 c -0.81706,-1.16308 -1.50979,-2.43002 -2.07817,-3.78003 v 0 c -0.24867,-0.22847 -0.24867,-0.45693 -0.24867,-0.81001 v -0.12459 0 c -0.49734,-1.22539 -1.0835,-2.34694 -1.56307,-3.65542 v -0.22846 0 c -0.19539,-0.33231 -0.19539,-0.81 -0.44405,-0.97616 v -0.20768 0 c 0,-0.29078 -0.19539,-0.60232 -0.19539,-0.97617 v -0.22847 0 c -0.28419,-0.91384 -0.49733,-1.66155 -0.88811,-2.70002 v -0.22846 0 c -0.21313,-0.43616 -0.31971,-0.93462 -0.28419,-1.43309 v -0.33231 0 c -0.15985,-0.56077 -0.23091,-1.18386 -0.19538,-1.7654 v -0.22846 0 c -0.15986,-1.16309 -0.2309,-2.32617 -0.19539,-3.48925 v -1.30848 0 -19.814 c -8.86329,-25.94098 -39.85822,-45.17344 -76.28836,-45.17344 v 0 c -38.082,0 -70.01832,20.60324 -77.37185,48.10192 h -1.50978 v 231.01799 0 1.03846 c 0.0355,2.22233 -0.21314,4.44465 -0.78152,6.5839 v 0 0.33231 c -0.0711,0.70616 -0.23092,1.37079 -0.49734,2.01464 v 0 c 0,0.58154 -0.28421,0.91384 -0.49736,1.43308 v 0 c 0,0.45693 -0.28419,0.78924 -0.28419,1.14232 v 0 0.22846 c 0,0.45693 -0.14209,0.81001 -0.14209,1.22539 v 0 0.22847 c -0.28419,0.3323 -0.28419,0.68538 -0.58616,1.03846 v 0 c -0.49734,1.22541 -0.97691,2.57541 -1.42096,3.78004 v 0 0.12459 l -0.28419,0.78923 v 0 0.22846 l -1.56307,3.09465 v 0 l -0.24868,0.58154 v 0 l -0.28419,0.58155 v 0 0.22846 l -0.19538,0.58154 v 0 0.12459 c -0.99468,1.66156 -2.09594,3.21926 -3.28599,4.69389 v 0 c -1.31441,1.53693 -2.64657,2.97001 -4.10306,4.69388 v 0 c -0.97691,1.16308 -2.1137,2.18079 -3.32152,2.97002 v 0 c -2.85971,2.5754 -5.87927,4.90158 -9.05869,6.93698 v 0 l -2.00711,1.26693 v 0 l -1.56308,0.91386 v 0 c -0.47957,0.31153 -0.99467,0.56077 -1.50978,0.74769 v 0 c -1.22559,0.68539 -2.30907,1.26693 -3.53466,1.82771 v 0 c -0.71049,0.22847 -1.38545,0.54 -2.00712,0.97616 v 0 c -0.99468,0.29077 -1.95384,0.68539 -2.89523,1.14232 v 0 l -0.67496,0.39462 v 0 l -0.72825,0.12459 v 0 c -0.28419,0 -0.58614,0.22846 -0.78153,0.22846 v 0 c -0.23091,0.12459 -0.47957,0.18693 -0.72825,0.22846 v 0 c -1.59859,0.68539 -3.23271,1.20462 -4.90235,1.59925 h -0.19538 c -0.67497,0.083 -1.34993,0.27 -2.00712,0.51923 v 0 c -0.46182,0 -0.94139,0.14538 -1.3144,0.45693 v 0 c -1.27887,0.22846 -2.50446,0.58154 -3.81885,0.91384 h -0.19539 l -1.08349,0.1246 h -0.39077 c -0.373,0 -0.76377,0.0623 -1.11901,0.16615 h -0.69273 c -1.2611,0.27001 -2.53998,0.45694 -3.81885,0.58155 h -0.30197 c -0.72824,0 -1.50978,0.33231 -2.30907,0.33231 h -0.44405 c -1.08349,0 -2.00712,0.12459 -3.09061,0.12459 h -0.28419 c -2.20251,0.22846 -4.4583,0.22846 -6.78514,0.22846 -2.32684,0 -4.60039,0 -6.90947,-0.22846 h -0.19538 c -1.04797,0 -2.30908,-0.12459 -3.32152,-0.12459 h -0.2842 c -0.67496,0 -1.42096,-0.33231 -2.30907,-0.33231 h -0.39077 c -2.30908,-0.29078 -4.74249,-0.7477 -7.14038,-1.08001 h -0.28419 c -0.49734,-0.12459 -0.97692,-0.12459 -1.27887,-0.45692 v 0 c -1.20783,-0.16616 -2.38013,-0.4777 -3.53467,-0.91387 h -0.19538 c -0.33748,-0.16615 -0.69273,-0.26999 -1.04797,-0.29077 v 0 c -0.67496,-0.16615 -1.34992,-0.39461 -2.00712,-0.68538 v 0 l -2.89523,-0.91385 v 0 l -0.49734,-0.22848 h -0.44406 l -0.78153,-0.22846 h -0.17762 c -1.22559,-0.51923 -2.61103,-0.97615 -3.92543,-1.53692 v 0 c -0.69273,-0.22848 -1.36769,-0.54001 -2.00712,-0.91386 v 0 c -0.67496,-0.45693 -1.22559,-0.51924 -2.00712,-0.97616 v 0 c -0.78153,-0.33232 -1.50978,-0.78924 -2.20251,-1.14232 v 0 c -0.56839,-0.24923 -1.10124,-0.58155 -1.61635,-0.97616 v 0 c -0.5151,-0.24924 -0.99467,-0.60232 -1.42097,-1.03847 v 0 c -1.86503,-0.91386 -3.37481,-2.11848 -4.90235,-3.0531 v 0 l -0.49734,-0.16615 v 0 c -0.14209,0 -0.26643,-0.10387 -0.28419,-0.27001 0,0 0,0 0,-0.0207 v 0 c -0.92364,-0.60232 -1.70516,-1.30848 -2.64656,-1.99386 v 0 l -0.39076,-0.16617 v 0 l -0.19539,-0.22846 v 0 l -0.19538,-0.45693 v 0 c -1.42098,-1.08001 -2.75314,-2.28463 -4.01424,-3.61387 v 0 c -0.46183,-0.37385 -0.90588,-0.78924 -1.31441,-1.22539 v 0 c -1.08348,-1.14232 -2.20251,-2.34694 -3.3748,-3.71773 v 0 c -0.10656,-0.3323 -0.33749,-0.51923 -0.63944,-0.85153 v 0 c -0.78153,-1.03848 -1.27887,-1.7654 -2.00712,-2.70003 v 0 c -0.28419,-0.22847 -0.28419,-0.33232 -0.58614,-0.6854 v 0 l -0.19539,-0.58154 v 0 c 0,-0.22846 -0.2842,-0.39461 -0.58615,-0.51923 v 0 c -0.88811,-1.37079 -1.70517,-2.80387 -2.45117,-4.2785 v 0 l -0.2842,-0.74769 v -0.22846 0 c -0.49734,-1.14233 -1.08349,-2.2431 -1.56306,-3.61389 v -0.22846 0 c -0.74602,-2.22232 -1.38545,-4.50695 -1.91832,-6.81236 v -0.45693 0 c -0.12435,-0.54 -0.21315,-1.10077 -0.28419,-1.66154 v -0.12459 0 c -0.24867,-0.99693 -0.40853,-2.03541 -0.44406,-3.09465 v -1.03847 0 -122.8302 h -0.58614 c -7.53115,-27.83098 -40.05361,-48.84962 -78.54416,-48.84962 v 0 c -38.52606,0 -71.04853,21.01864 -78.68625,48.84962 h -0.19538 v 19.23246 c 0.0533,1.82771 -0.0355,3.67618 -0.2842,5.48313 v 0 0.22846 c -0.0178,0.81001 -0.17762,1.59923 -0.44405,2.34694 v 0 0.22847 c 0,0.58154 -0.19538,1.08 -0.19538,1.7654 v 0 0.12459 c -0.30196,0.95538 -0.5684,1.93155 -0.78153,2.92848 v 0 0.22846 c 0,0.33231 -0.28421,0.68539 -0.28421,0.85154 v 0 0.22846 c 0,0.33232 -0.28419,0.6854 -0.28419,1.03848 v 0 0.12459 c -0.19538,0.76847 -0.44404,1.51618 -0.72825,2.2431 v 0 c 0,0.33231 -0.28419,0.58154 -0.49734,0.91386 v 0 c -0.21313,0.29077 -0.37299,0.62308 -0.49733,0.97616 v 0 c -0.30196,0.4777 -0.56838,0.99693 -0.78153,1.53694 v 0 0.22846 c -0.83482,1.37077 -1.61636,2.80387 -2.53999,4.27849 v 0 c 0,0.1246 -0.19538,0.29078 -0.49734,0.39462 v 0 c 0,0.22846 -0.28419,0.45692 -0.49734,0.68539 v 0 c -0.72825,1.03847 -1.33216,1.99386 -2.07817,2.92848 v 0 c -0.49734,0.45694 -0.72825,0.97617 -1.22559,1.43309 v 0 c -0.19539,0.45693 -0.49734,0.58155 -0.67496,1.03847 v 0 c -0.49734,0.62309 -1.03021,1.16308 -1.61635,1.66156 v 0 c -0.49734,0.45692 -0.78153,0.91384 -1.22559,1.26692 v 0 c -1.08348,1.2254 -2.30907,2.11848 -3.28599,3.09465 v 0 l -0.2842,0.33231 v 0 c -2.13145,2.01464 -4.42277,3.78002 -6.85618,5.25465 v 0 l -0.19538,0.22846 v 0 c -1.61635,0.85156 -3.09062,1.89002 -4.49382,2.70003 v 0 c -1.31441,0.7477 -2.89523,1.53693 -4.10305,2.11848 v 0 c -0.69273,0.29077 -1.34993,0.60231 -2.00712,0.97617 v 0 c -0.46183,0.12459 -0.90588,0.3323 -1.31441,0.58154 v 0 c -3.659,1.64078 -7.40681,2.99079 -11.2079,4.07079 v 0 l -0.92363,0.29077 h -0.28419 c -1.9716,0.70616 -3.97873,1.2254 -6.02138,1.59925 v 0 c -0.58614,0.22846 -1.08348,0.22846 -1.56305,0.45692 h -0.1421 c -0.69272,0.16616 -1.17231,0.16616 -1.66965,0.29077 v 0 c -1.22558,0.22847 -2.75312,0.45693 -4.01424,0.58155 h -0.44405 c -0.78154,0 -1.56307,0.22846 -2.30908,0.22846 h -0.28419 c -1.08349,0 -2.20251,0.22847 -3.37481,0.22847 h -0.14209 c -2.30908,0.22847 -4.31621,0.22847 -6.60752,0.22847 -2.07817,0 -4.01424,0 -6.32332,-0.22847 h -0.78153 c -1.0835,-0.0416 -2.16698,-0.18692 -3.23271,-0.45693 h -0.28419 c -0.78154,0 -1.50978,-0.12459 -2.39789,-0.12459 h -0.49734 c -1.91831,-0.22847 -3.71228,-0.58155 -5.73717,-0.97616 v 0 c -1.04797,-0.22846 -2.07817,-0.33231 -2.84194,-0.58154 v 0 c -1.19006,-0.18693 -2.36236,-0.51924 -3.48138,-1.03847 h -0.30196 c -0.24866,-0.0416 -0.49733,-0.12459 -0.72825,-0.22846 h -0.19538 c -1.42097,-0.27001 -2.82418,-0.62309 -4.20963,-1.08001 v 0 c -2.46893,-0.76847 -4.90234,-1.74463 -7.24694,-2.92849 v 0 l -2.00712,-0.91385 v 0 l -1.36769,-0.60231 v 0 c -1.22559,-0.51924 -2.39789,-1.14233 -3.53466,-1.89002 v 0 c -0.47958,-0.31155 -0.95915,-0.66463 -1.42097,-1.03847 v 0 c -1.58083,-0.81 -3.12614,-1.74462 -4.60039,-2.80386 v 0 l -0.58616,-0.22848 v 0 l -0.28419,-0.22846 v 0 c -1.65187,-1.08 -3.23271,-2.30539 -4.74249,-3.6554 v 0 l -0.19538,-0.1246 v 0 c 0,0 -0.28419,-0.22846 -0.28419,-0.45692 v 0 c -1.27888,-1.22539 -2.61104,-2.34694 -3.71229,-3.61388 v 0 c -0.67496,-0.16616 -0.78154,-0.60231 -1.27888,-0.97616 v 0 c -0.83482,-0.99693 -1.72293,-1.93155 -2.64655,-2.80387 v 0 c -0.21315,-0.35308 -0.47958,-0.66462 -0.78153,-0.91386 v 0 c -1.61636,-2.13924 -3.10838,-4.38234 -4.49383,-6.7085 v -0.12459 0 l -0.28419,-0.51924 v 0 c -0.2842,-0.49847 -0.49734,-1.03848 -0.63943,-1.59925 v 0 c -0.33748,-0.45692 -0.60392,-0.97615 -0.78154,-1.55769 v 0 c -0.26643,-0.1454 -0.42629,-0.45694 -0.39076,-0.78925 v -0.12459 0 c -0.31973,-0.95539 -0.72825,-1.84847 -1.22559,-2.70002 v 0 c -0.19539,-0.39461 -0.19539,-0.85154 -0.49734,-1.22539 v -0.0623 0 c 0,-0.45692 -0.19539,-0.68538 -0.19539,-1.08 v -0.12459 0 c -0.28419,-0.78924 -0.53286,-1.62002 -0.72825,-2.43003 v 0 c -0.21315,-0.60231 -0.37301,-1.20461 -0.49734,-1.8277 v -0.22847 0 c -0.33748,-0.54 -0.47957,-1.22539 -0.39077,-1.89001 v -0.45693 0 c -0.15986,-0.78923 -0.2309,-1.62001 -0.19537,-2.43001 v -0.51923 0 c 0,-1.59925 -0.2842,-2.92849 -0.2842,-4.46543 V 492.60264 l -2.22027,-2.47156 z"
     style="stroke-width:1.92071" />
</svg>
